<?xml version="1.0" standalone="no"?>
<!DOCTYPE svg PUBLIC "-//W3C//DTD SVG 20010904//EN"
 "http://www.w3.org/TR/2001/REC-SVG-20010904/DTD/svg10.dtd">
<svg version="1.0" xmlns="http://www.w3.org/2000/svg"
 width="800.000000pt" height="800.000000pt" viewBox="0 0 800.000000 800.000000"
 preserveAspectRatio="xMidYMid meet">
<metadata>
Created by potrace 1.11, written by Peter Selinger 2001-2013
</metadata>
<g transform="translate(0.000000,800.000000) scale(0.100000,-0.100000)"
fill="#000000" stroke="none">
<path d="M3307 6922 c6 -14 4 -15 -9 -5 -12 11 -18 10 -29 -5 -33 -39 -42 -53
-33 -51 19 3 29 -1 18 -9 -9 -5 -8 -10 2 -20 11 -10 12 -5 9 28 -3 28 -1 39 7
34 7 -5 8 -3 3 6 -5 9 -4 11 3 6 9 -5 9 -13 0 -29 -6 -12 -11 -22 -11 -22 0 0
5 -10 11 -22 9 -16 9 -24 1 -29 -8 -4 -7 -9 2 -14 10 -7 10 -12 -2 -26 -8 -10
-9 -15 -3 -11 12 7 47 -30 39 -43 -3 -5 -1 -11 4 -14 5 -3 8 -21 7 -38 -3 -39
3 -60 15 -52 5 3 9 0 9 -5 0 -6 -6 -11 -13 -11 -14 0 -16 -27 -3 -48 4 -7 1
-15 -9 -18 -12 -5 -13 -9 -5 -14 9 -6 9 -13 1 -29 -9 -16 -9 -21 1 -21 10 0
10 -2 -1 -9 -11 -7 -11 -10 0 -15 8 -3 3 -4 -11 -3 -22 2 -25 -2 -23 -25 1
-16 -3 -28 -10 -28 -8 0 -8 -3 2 -9 10 -7 6 -20 -23 -62 -28 -43 -33 -56 -24
-68 10 -13 10 -14 -2 -3 -17 14 -40 16 -40 2 0 -5 8 -10 18 -11 12 0 10 -3 -8
-11 -14 -6 -29 -10 -33 -9 -5 1 -6 -3 -2 -9 5 -8 12 -7 23 2 15 11 15 11 5 -3
-7 -9 -9 -20 -5 -24 4 -5 1 -5 -5 -1 -7 4 -13 2 -13 -4 0 -6 -5 -8 -12 -4 -7
4 -8 3 -4 -4 4 -7 1 -12 -9 -12 -15 0 -15 -1 -1 -16 17 -17 21 -28 7 -20 -11
7 -19 -12 -16 -41 1 -12 -2 -20 -7 -17 -4 3 -11 -2 -14 -10 -3 -9 -11 -13 -17
-9 -6 3 -7 1 -3 -5 3 -6 -2 -16 -11 -22 -16 -10 -15 -10 5 -5 27 8 30 -11 2
-20 -26 -8 -39 -33 -35 -70 2 -16 -1 -33 -7 -36 -7 -4 -13 -15 -14 -23 -1 -9
2 -14 7 -10 5 3 7 10 4 15 -4 5 -2 9 4 9 5 0 9 -9 8 -20 -1 -11 -5 -20 -9 -20
-4 0 -4 -7 -1 -17 4 -10 2 -14 -4 -10 -6 4 -14 -1 -18 -11 -11 -25 -13 -122
-3 -122 5 0 7 4 4 8 -3 5 1 9 9 9 8 0 15 -2 15 -4 0 -9 -28 -32 -33 -27 -7 7
-1 -52 7 -65 4 -6 11 -9 16 -6 4 3 13 -2 19 -9 10 -12 8 -13 -11 -9 -22 5 -22
5 -4 -9 10 -8 16 -20 13 -25 -4 -6 0 -13 8 -17 8 -3 14 0 12 6 -1 6 5 13 13
15 12 4 12 3 1 -5 -9 -7 -10 -12 -2 -16 6 -4 11 -13 11 -19 0 -8 -3 -8 -8 -2
-14 20 -36 11 -36 -15 0 -26 -19 -45 -36 -35 -6 3 -10 -1 -10 -10 0 -10 5 -13
12 -9 7 4 8 3 4 -4 -4 -6 -14 -8 -23 -5 -12 5 -14 3 -8 -7 5 -9 4 -11 -4 -6
-9 6 -9 11 -1 21 6 8 7 16 2 19 -12 7 -22 -3 -22 -25 0 -13 -6 -17 -24 -13
-14 2 -28 -1 -31 -6 -5 -8 -11 -8 -20 0 -10 8 -15 8 -21 -1 -5 -8 -3 -9 6 -4
9 5 11 4 6 -4 -6 -9 -13 -9 -30 3 -16 10 -27 11 -37 4 -12 -8 -12 -9 1 -5 8 2
21 -1 27 -9 11 -11 8 -12 -17 -9 -16 2 -35 6 -42 10 -7 4 -5 0 5 -8 25 -21 22
-24 -23 -23 -22 1 -40 -2 -40 -6 0 -5 -5 -8 -11 -8 -5 0 -7 5 -3 12 4 7 3 8
-5 4 -15 -10 -3 -29 15 -22 8 3 14 2 14 -3 0 -16 -13 -20 -33 -10 -12 7 -17 7
-13 1 3 -5 -1 -13 -10 -16 -23 -9 -26 -8 -18 7 5 8 2 8 -9 -2 -21 -16 -22 -32
-3 -25 8 3 17 0 22 -7 4 -8 3 -10 -4 -5 -6 4 -20 2 -30 -3 -13 -7 -23 -6 -32
2 -9 8 -11 8 -7 1 4 -7 0 -14 -7 -17 -8 -3 -16 -1 -19 6 -2 6 -6 4 -10 -6 -3
-9 -1 -19 5 -23 6 -4 8 -3 5 2 -3 6 4 10 16 11 12 0 16 -1 9 -4 -6 -3 -10 -8
-8 -12 4 -6 -18 -10 -69 -11 -16 -1 -17 -3 -5 -10 8 -5 18 -6 24 -3 5 4 6 1 1
-7 -6 -10 -4 -12 11 -6 15 6 17 5 7 -5 -10 -10 -16 -10 -25 -1 -18 18 -32 14
-17 -5 10 -11 10 -14 2 -9 -7 4 -14 2 -14 -3 -1 -6 -2 -15 -3 -20 0 -5 -5 -13
-10 -18 -5 -5 -6 -3 -2 5 4 7 2 12 -5 12 -8 0 -8 4 1 15 11 13 10 14 -4 9 -9
-3 -16 -11 -15 -18 3 -21 -1 -36 -8 -35 -19 3 -23 -2 -14 -20 9 -16 8 -18 -8
-14 -16 4 -19 0 -17 -21 2 -15 1 -24 -2 -21 -3 2 -11 0 -19 -6 -10 -9 -13 -8
-13 0 0 7 -5 9 -11 5 -8 -5 -8 -9 1 -14 7 -4 9 -13 6 -19 -4 -6 -12 -9 -17 -6
-5 4 -4 -6 1 -21 8 -19 8 -30 0 -38 -8 -8 -9 -6 -4 8 5 13 4 17 -4 12 -8 -5
-10 -1 -6 11 5 15 4 15 -4 3 -6 -8 -8 -18 -6 -22 3 -4 0 -8 -5 -8 -6 0 -11 -5
-11 -11 0 -5 6 -7 13 -3 6 4 3 -3 -8 -16 -11 -13 -14 -20 -7 -16 6 4 12 3 12
-2 0 -10 -29 -26 -42 -24 -4 1 -4 -6 -1 -15 5 -12 3 -14 -7 -8 -9 6 -11 4 -6
-4 5 -7 18 -17 30 -22 19 -8 18 -9 -6 -4 -22 4 -25 2 -21 -16 4 -13 -1 -25
-13 -34 -16 -11 -17 -16 -6 -27 11 -11 12 -10 7 5 -4 9 -3 17 3 17 6 0 9 -8 7
-17 -2 -10 -4 -18 -5 -18 -1 0 -3 -8 -5 -18 -2 -11 -6 -22 -10 -25 -3 -4 -4 6
-1 22 4 23 3 26 -9 16 -10 -8 -11 -18 -5 -35 7 -18 5 -25 -7 -29 -10 -4 -12
-10 -6 -19 11 -14 9 -144 -2 -171 -6 -15 -5 -17 5 -11 9 5 11 4 6 -4 -6 -9
-11 -9 -23 1 -15 12 -15 11 -3 -9 8 -12 19 -19 25 -16 5 3 4 0 -2 -8 -16 -16
-17 -33 -1 -23 7 4 8 3 4 -5 -5 -7 -13 -9 -20 -4 -7 4 -3 0 7 -9 16 -15 17
-18 3 -18 -9 0 -16 -5 -16 -11 0 -5 -5 -7 -12 -3 -7 4 -8 3 -4 -5 6 -8 12 -9
20 -2 7 6 16 8 20 4 4 -4 -4 -13 -16 -21 -13 -7 -15 -11 -6 -8 10 3 20 1 23
-4 4 -6 1 -11 -4 -11 -26 -3 -30 -4 -36 -11 -4 -4 3 -5 17 -3 20 4 24 1 24
-20 0 -14 -4 -21 -10 -17 -6 3 -5 -2 3 -11 8 -10 11 -20 8 -24 -4 -3 -2 -12 4
-20 6 -7 7 -13 2 -13 -5 0 -8 -14 -5 -30 2 -17 9 -30 14 -30 5 0 6 4 3 10 -3
6 1 7 10 3 13 -5 14 -7 3 -14 -10 -7 -10 -9 2 -9 13 0 13 -1 0 -10 -12 -7 -12
-10 -1 -10 7 0 11 -6 7 -15 -3 -8 -1 -15 4 -15 6 0 10 -5 10 -11 0 -5 -5 -7
-12 -3 -8 5 -9 2 -5 -9 3 -9 1 -19 -5 -23 -7 -4 -8 -3 -4 4 4 7 2 12 -4 12 -6
0 -8 5 -4 13 6 9 4 9 -8 -1 -9 -7 -14 -21 -11 -33 4 -15 2 -18 -11 -13 -9 3
-16 1 -16 -6 0 -6 -5 -8 -10 -5 -6 4 -8 12 -4 18 3 7 -1 4 -9 -5 -16 -21 -32
-24 -21 -5 5 7 1 6 -10 -3 -17 -13 -17 -14 0 -20 23 -8 0 -17 -38 -15 -15 1
-25 -1 -23 -6 3 -4 -2 -10 -11 -13 -10 -4 -13 -2 -8 6 5 7 3 8 -5 4 -7 -5 -10
-15 -6 -24 3 -9 3 -13 -1 -10 -4 4 -15 3 -25 -2 -12 -7 -19 -6 -22 3 -3 7 -6
5 -6 -5 -1 -15 -5 -16 -27 -8 -33 13 -44 12 -21 -1 9 -5 17 -18 17 -27 0 -12
-3 -13 -8 -5 -12 18 -51 12 -44 -7 3 -8 2 -12 -3 -8 -12 11 -47 -12 -41 -27 3
-9 0 -12 -10 -8 -10 4 -13 0 -8 -13 5 -18 5 -18 -6 -1 -6 9 -16 15 -21 11 -6
-3 -5 -12 3 -22 8 -10 9 -13 1 -9 -6 4 -15 1 -20 -7 -11 -19 -24 -21 -34 -4
-6 8 -8 2 -5 -18 3 -29 1 -32 -25 -30 -18 1 -26 -2 -21 -8 11 -16 8 -46 -3
-44 -6 1 -9 9 -7 18 2 11 0 10 -8 -3 -6 -9 -15 -15 -21 -12 -5 3 -6 -1 -3 -9
3 -9 11 -13 17 -9 6 3 7 1 3 -5 -4 -7 -14 -12 -22 -12 -8 0 -14 -5 -14 -11 0
-5 4 -8 8 -5 4 2 8 -4 8 -14 0 -14 -3 -16 -13 -8 -7 6 -13 7 -13 2 0 -5 -5 -2
-10 6 -7 11 -8 6 -5 -17 2 -18 0 -35 -5 -38 -5 -3 -7 -14 -5 -25 2 -11 -1 -23
-7 -26 -7 -4 -8 -2 -4 4 4 7 1 12 -6 12 -9 0 -9 3 2 10 12 7 10 9 -7 7 -17 -1
-20 -4 -11 -15 9 -10 8 -16 -3 -23 -8 -5 -9 -9 -4 -9 6 0 11 -9 11 -19 0 -16
-3 -18 -15 -8 -12 9 -13 9 -7 0 4 -7 2 -13 -3 -13 -6 0 -11 -5 -11 -11 0 -5 4
-8 9 -4 5 3 12 1 15 -4 9 -14 -13 -24 -27 -12 -10 8 -13 1 -13 -30 0 -21 4
-39 10 -39 5 0 1 -7 -10 -15 -14 -10 -15 -14 -5 -15 11 0 10 -4 -5 -16 -10 -8
-13 -13 -6 -9 7 4 12 0 12 -10 0 -9 -4 -14 -8 -11 -12 7 -11 -26 1 -41 6 -9 5
-13 -4 -13 -9 0 -10 -3 -3 -8 13 -8 15 -44 2 -36 -4 3 -8 0 -8 -5 0 -6 5 -11
12 -11 6 0 3 -6 -7 -14 -18 -13 -30 -61 -13 -50 11 7 10 -3 -3 -29 -9 -20 -9
-20 4 -4 17 21 24 22 24 2 0 -8 -9 -17 -19 -21 -24 -7 -23 -21 2 -29 11 -4 20
-15 20 -26 0 -11 -4 -17 -10 -14 -5 3 -10 1 -10 -4 0 -6 4 -11 9 -11 6 0 9
-22 8 -50 0 -27 3 -53 8 -57 4 -5 5 -1 0 7 -5 9 -5 12 1 7 5 -5 9 -14 9 -20 1
-7 6 -11 11 -10 6 1 11 -4 11 -12 0 -8 -3 -12 -7 -10 -3 2 -14 -4 -23 -15 -14
-17 -14 -19 3 -17 10 1 16 5 14 9 -3 4 -1 8 4 8 6 0 13 -7 16 -16 3 -8 2 -12
-3 -9 -5 3 -12 1 -16 -5 -3 -5 1 -10 9 -10 9 0 16 -4 16 -10 0 -5 -8 -7 -17
-3 -15 5 -15 3 1 -9 12 -10 17 -21 13 -32 -4 -10 -3 -15 3 -11 6 3 10 1 10 -5
0 -6 4 -9 9 -6 5 3 14 -1 21 -9 12 -14 7 -20 -15 -15 -5 1 -2 -7 8 -18 15 -17
16 -21 3 -31 -8 -7 -20 -10 -27 -6 -6 4 -16 1 -21 -6 -8 -11 -9 -10 -4 4 3 10
2 15 -3 12 -6 -3 -14 3 -20 12 -6 10 -11 13 -11 6 0 -6 5 -15 10 -18 21 -13 9
-24 -16 -14 -25 9 -26 8 -13 -8 7 -10 9 -15 5 -11 -12 10 -38 -11 -30 -24 4
-6 -5 -2 -20 7 -25 17 -26 17 -19 0 4 -13 3 -16 -5 -11 -7 4 -12 2 -12 -4 0
-7 -7 -5 -16 4 -19 20 -20 20 -22 1 -1 -8 -3 -22 -4 -30 -1 -8 -5 -12 -10 -9
-5 4 -7 13 -4 21 3 8 2 12 -3 8 -5 -3 -11 0 -13 7 -3 7 -7 2 -10 -10 -4 -15
-3 -20 5 -15 7 4 6 -1 -2 -11 -10 -12 -16 -14 -21 -5 -6 8 -9 8 -15 0 -5 -9
-10 -9 -21 0 -11 9 -15 8 -20 -5 -3 -9 -9 -14 -13 -11 -4 2 -8 -3 -8 -12 0
-12 5 -11 19 7 l18 23 -3 -24 c-4 -21 -9 -24 -44 -24 -37 1 -41 -1 -37 -22 3
-13 0 -23 -6 -23 -6 0 -8 5 -5 10 3 6 1 10 -5 10 -6 0 -8 5 -4 12 4 7 3 8 -4
4 -6 -4 -9 -13 -5 -21 5 -14 -21 -21 -51 -16 -5 1 -4 -4 2 -12 14 -17 6 -27
-21 -27 -14 0 -17 -5 -13 -16 6 -14 4 -15 -9 -4 -9 7 -15 9 -14 4 4 -23 -2
-36 -16 -30 -9 3 -19 -3 -26 -16 -6 -11 -7 -18 -1 -14 5 3 12 0 15 -8 6 -15
-9 -16 -30 -3 -12 8 -17 2 -14 -15 0 -5 -4 -8 -10 -8 -8 0 -7 -6 2 -17 12 -15
12 -16 -3 -10 -14 5 -18 1 -19 -16 -1 -17 -2 -18 -6 -4 -2 9 -9 15 -14 12 -5
-4 -5 -15 2 -27 7 -13 7 -18 1 -14 -16 10 -24 -11 -13 -33 9 -16 8 -18 -10
-14 -13 4 -16 8 -9 13 8 5 7 10 -3 18 -11 10 -13 4 -12 -29 1 -22 -2 -42 -7
-45 -5 -3 -6 -14 -3 -25 4 -11 2 -19 -4 -19 -6 0 -11 6 -11 14 0 8 -4 17 -9
20 -5 4 -7 -3 -4 -14 3 -11 1 -26 -5 -33 -5 -6 -9 -27 -8 -45 1 -19 -4 -32
-11 -32 -7 0 -13 -5 -13 -11 0 -5 5 -7 11 -3 6 4 9 -1 8 -12 -2 -11 0 -25 4
-32 5 -7 5 -12 0 -11 -20 4 -27 -2 -13 -12 12 -9 11 -10 -7 -6 -16 4 -23 0
-23 -10 0 -8 5 -11 11 -7 6 3 4 -5 -5 -19 -13 -20 -14 -26 -4 -30 10 -4 9 -9
-4 -17 -15 -9 -16 -14 -6 -30 7 -10 17 -16 23 -13 5 2 -1 -5 -15 -17 -14 -12
-19 -19 -12 -15 8 4 12 -2 12 -20 0 -18 4 -24 12 -20 7 4 4 -1 -6 -9 -17 -14
-18 -16 -3 -16 9 0 17 -5 17 -11 0 -5 -4 -8 -9 -5 -14 9 -19 -16 -10 -41 5
-12 4 -25 0 -28 -11 -6 -2 -45 10 -45 5 0 5 8 2 18 -7 16 -6 16 11 -1 10 -9
16 -23 13 -30 -2 -6 0 -23 5 -36 6 -17 5 -27 -4 -33 -10 -6 -10 -8 2 -8 13 0
13 -1 0 -10 -12 -8 -12 -10 5 -10 17 0 17 -2 5 -10 -12 -8 -12 -10 -1 -10 10
0 11 -4 3 -13 -7 -8 -6 -17 3 -30 11 -16 13 -16 19 -2 3 9 2 13 -4 10 -6 -3
-7 1 -4 10 12 29 18 6 27 -95 2 -26 19 -31 25 -8 2 9 0 8 -7 -2 -13 -18 -15
-1 -2 18 7 11 9 11 14 -2 4 -9 3 -23 0 -33 -5 -11 -3 -14 6 -8 10 6 11 3 1
-15 -7 -12 -8 -20 -2 -16 13 8 23 -19 16 -42 -4 -10 -2 -13 3 -7 5 7 16 2 30
-12 14 -15 17 -24 10 -28 -7 -3 -2 -3 11 -1 14 3 22 -1 22 -11 0 -8 5 -11 12
-7 7 5 8 3 2 -7 -4 -8 -9 -21 -11 -29 -1 -12 1 -11 11 3 15 20 27 22 23 5 -1
-8 6 -12 18 -10 20 3 20 3 1 -11 -19 -14 -19 -15 2 -26 19 -10 21 -9 16 6 -4
12 -1 10 11 -5 9 -13 23 -21 30 -18 9 3 11 -2 8 -17 -4 -18 -3 -19 6 -7 9 12
11 11 11 -7 0 -13 5 -23 11 -23 5 0 8 4 5 8 -3 5 5 8 17 7 14 -1 22 -8 22 -21
0 -13 7 -19 23 -18 16 1 22 -4 22 -20 0 -17 2 -18 9 -6 6 8 7 18 4 24 -3 5 -1
6 5 3 5 -4 8 -17 4 -29 -3 -14 -2 -19 6 -14 7 4 12 2 12 -4 0 -6 5 -8 13 -3
20 13 39 12 34 -1 -3 -7 1 -13 9 -13 7 0 11 4 9 8 -6 9 21 20 29 12 3 -4 1
-12 -6 -20 -6 -7 -8 -16 -4 -20 3 -3 6 -1 6 6 0 8 5 9 19 2 10 -6 21 -7 25 -4
3 3 6 1 6 -6 0 -7 4 -10 10 -6 5 3 6 13 3 22 -4 11 -2 14 8 11 8 -3 12 -13 11
-23 -3 -16 -1 -17 12 -6 9 8 16 9 16 4 0 -5 10 -9 23 -7 12 1 22 3 22 4 0 1 8
3 18 5 18 3 18 3 0 -18 -15 -19 -16 -20 -1 -8 10 7 24 11 32 8 10 -4 13 -1 10
8 -4 10 0 12 15 8 11 -3 18 -10 15 -17 -3 -6 2 -2 10 8 9 11 16 15 16 9 0 -13
67 -12 88 0 7 5 12 3 12 -4 0 -8 5 -7 17 2 9 8 14 9 10 3 -4 -8 5 -11 27 -10
19 0 32 4 29 9 -2 4 1 7 6 7 6 0 11 -5 11 -11 0 -8 5 -8 15 1 8 7 12 17 8 23
-3 5 -1 7 5 3 6 -3 13 -2 17 4 3 5 11 10 18 10 6 0 1 -7 -11 -16 -27 -19 -29
-34 -2 -27 11 3 18 9 15 13 -3 5 4 6 15 3 11 -3 20 -9 20 -13 0 -12 34 -6 43
8 5 7 12 10 17 7 5 -3 11 -1 14 4 7 11 -13 9 -32 -2 -7 -5 -12 -4 -12 2 0 12
4 13 48 15 15 1 32 4 38 8 6 4 14 4 18 0 11 -10 88 -10 110 1 14 7 17 6 10 -5
-6 -11 -5 -11 9 1 14 11 17 11 18 0 1 -8 5 -3 9 11 5 15 8 18 9 8 1 -14 11
-16 69 -14 37 2 75 -1 86 -7 13 -6 16 -6 12 2 -10 15 7 14 24 -2 12 -10 12 -9
2 4 -6 9 -9 19 -5 23 4 4 -1 4 -11 0 -15 -6 -17 -4 -11 6 5 9 4 11 -4 6 -6 -4
-9 -12 -6 -17 4 -5 1 -9 -4 -9 -6 0 -11 7 -11 15 0 14 14 20 35 15 11 -3 19
-2 58 4 24 4 27 1 28 -22 l1 -27 7 25 c4 16 14 25 29 26 12 1 19 -3 16 -7 -3
-5 2 -9 10 -9 9 0 16 4 16 8 0 4 9 8 20 9 13 1 18 -2 13 -10 -4 -7 0 -6 10 2
13 10 17 10 17 1 0 -10 3 -10 15 0 18 15 36 5 29 -18 -5 -14 -4 -14 4 -2 6 8
9 17 6 21 -2 4 5 7 16 6 11 -1 20 -6 20 -11 0 -5 7 -1 16 10 8 10 12 13 9 6
-6 -12 -3 -12 15 -2 12 7 20 8 16 2 -3 -5 1 -12 9 -15 10 -4 12 -1 8 11 -6 15
-5 15 10 3 12 -9 17 -10 17 -2 0 8 9 7 29 -4 31 -15 49 -6 35 18 -4 6 2 3 14
-7 17 -14 22 -16 22 -5 0 12 2 11 10 -1 5 -8 12 -11 16 -7 4 4 14 1 22 -6 13
-10 14 -9 7 2 -6 11 -3 13 14 8 19 -5 21 -2 15 16 -5 17 -2 16 19 -8 22 -26
26 -28 32 -13 6 14 11 15 26 7 15 -8 19 -6 19 6 0 9 5 13 10 10 6 -4 8 -9 6
-13 -2 -4 19 -7 48 -7 36 0 53 4 53 13 0 15 -12 15 -37 2 -13 -7 -21 -6 -26 2
-4 7 -4 10 1 6 4 -4 20 -1 36 8 18 9 29 11 29 4 0 -6 5 -8 12 -4 7 5 36 9 65
9 43 1 51 -1 42 -12 -6 -7 -15 -10 -20 -7 -5 3 -9 0 -9 -7 0 -6 8 -9 20 -6 10
3 21 2 23 -2 2 -3 2 -1 1 6 -4 16 13 26 21 13 5 -8 11 -7 21 1 9 7 14 8 13 3
-4 -21 2 -48 9 -39 8 12 83 15 76 3 -7 -11 3 -10 25 2 14 7 23 4 37 -12 12
-13 13 -18 4 -13 -21 13 -60 18 -41 6 11 -7 11 -9 0 -13 -9 -3 -8 -6 5 -11 9
-4 15 -3 11 2 -3 5 -1 12 4 15 5 4 12 2 16 -4 3 -5 17 -7 31 -4 16 4 24 2 25
-7 1 -8 5 -3 9 11 6 18 8 20 9 7 1 -10 5 -15 11 -12 5 3 10 1 10 -4 0 -6 5
-11 11 -11 5 0 7 5 3 11 -4 7 1 7 16 -1 15 -8 20 -8 16 -1 -4 6 -2 11 3 11 6
0 11 -5 11 -11 0 -5 5 -7 10 -4 6 3 10 0 10 -7 0 -8 3 -9 8 -3 10 13 69 17 90
6 9 -5 26 -5 41 0 l26 9 -23 -19 c-12 -11 -18 -22 -13 -25 5 -3 11 1 15 9 7
18 27 20 22 3 -1 -7 -1 -10 1 -6 3 5 12 4 21 0 20 -10 33 -9 51 2 8 5 16 4 22
-5 5 -8 9 -9 9 -3 0 7 7 14 14 17 10 4 13 1 9 -9 -4 -12 -1 -13 22 -4 32 12
38 13 31 2 -3 -5 11 -8 32 -6 20 1 45 -2 54 -7 14 -8 16 -6 11 7 -4 11 -3 15
5 10 6 -3 16 2 22 11 9 15 10 15 4 -6 -4 -15 -2 -21 4 -17 6 3 13 2 17 -4 4
-6 12 -7 18 -3 19 12 46 13 52 3 4 -6 12 -7 18 -3 7 4 21 8 32 9 51 3 56 4 49
16 -4 7 -3 8 5 4 6 -4 9 -11 6 -16 -6 -10 77 -6 95 5 9 5 11 4 6 -3 -5 -8 2
-11 23 -8 17 2 28 -1 25 -5 -3 -5 2 -6 10 -3 9 3 13 11 9 18 -4 6 1 5 10 -2
11 -10 33 -12 71 -9 37 4 56 2 60 -6 3 -9 5 -9 5 0 1 7 11 10 27 7 16 -3 23
-1 19 6 -10 16 1 12 16 -7 12 -14 12 -16 0 -8 -9 5 -12 4 -7 -3 4 -6 13 -9 21
-6 8 4 13 9 11 13 -3 4 11 7 30 6 25 0 41 -7 55 -25 17 -21 19 -22 10 -3 -14
29 -14 29 9 29 11 0 20 -3 20 -6 0 -3 10 -11 23 -19 l22 -14 -19 22 c-19 21
-19 21 -1 15 14 -6 16 -4 11 7 -4 8 2 3 13 -10 12 -12 18 -27 15 -32 -3 -5 0
-9 6 -9 6 0 8 10 4 25 -5 20 -3 24 10 19 9 -3 13 -11 9 -17 -3 -6 -1 -7 6 -3
6 4 19 2 27 -5 8 -7 14 -8 13 -3 -4 24 3 31 31 30 31 -1 39 -10 18 -20 -7 -2
-3 -4 9 -2 12 1 26 6 30 11 5 4 2 5 -4 1 -7 -4 -13 -2 -13 3 0 6 7 11 15 11 8
0 15 -6 15 -12 0 -9 4 -8 10 2 10 16 12 13 14 -19 1 -25 13 -37 13 -14 0 37 3
40 34 37 17 -2 35 -6 40 -9 5 -4 9 2 9 12 0 10 4 14 8 8 4 -5 15 -16 24 -23
14 -12 16 -10 12 10 -5 20 -4 21 6 6 12 -20 35 -25 25 -6 -4 7 1 4 11 -7 16
-20 16 -20 11 3 -6 23 -5 24 15 5 12 -10 18 -12 14 -5 -4 6 -2 12 3 12 6 0 11
-4 11 -10 0 -5 7 -7 15 -4 8 4 12 11 8 18 -3 6 6 0 21 -14 20 -18 25 -20 20
-7 -3 9 -2 17 4 17 6 0 13 -6 15 -12 4 -10 6 -10 6 -1 1 9 8 10 27 3 22 -9 25
-8 20 5 -3 8 -3 15 0 15 2 0 9 -10 14 -23 7 -17 9 -18 9 -4 1 13 7 16 26 11
17 -4 25 -2 25 7 0 8 6 5 16 -7 8 -10 13 -14 10 -7 -5 8 7 10 41 7 28 -2 53 1
62 9 10 8 12 8 8 1 -4 -7 0 -15 9 -18 8 -3 12 -2 9 4 -3 6 2 11 12 11 24 2 25
2 48 -7 16 -6 18 -5 8 7 -16 16 -17 29 -2 29 5 0 8 -4 5 -9 -3 -5 1 -14 9 -21
8 -7 15 -9 15 -5 0 4 6 2 13 -4 10 -8 19 -7 33 4 24 18 38 19 28 3 -4 -7 2 -5
14 6 12 10 19 24 15 30 -4 6 0 6 9 -1 8 -7 19 -9 23 -5 5 4 5 1 1 -6 -4 -7
-12 -9 -18 -6 -7 5 -8 2 -3 -6 5 -9 4 -11 -3 -6 -7 4 -12 2 -12 -3 0 -14 2
-14 34 2 14 8 22 18 18 22 -4 5 -2 5 5 1 7 -4 9 -14 6 -23 -5 -12 -2 -12 15 3
22 19 29 30 13 20 -5 -3 -15 2 -22 12 -12 15 -12 16 1 6 8 -6 43 -9 80 -7 36
2 73 4 82 4 10 0 25 10 33 22 12 18 15 19 15 4 0 -9 -4 -17 -10 -17 -5 0 -10
-5 -10 -10 0 -7 6 -7 18 -1 11 6 24 6 34 0 11 -6 19 -6 23 1 4 6 11 8 16 5 5
-3 6 1 2 10 -3 9 -9 13 -12 8 -9 -12 -44 -16 -36 -4 3 6 14 11 23 11 15 0 15
2 2 10 -9 6 -10 10 -3 10 6 0 15 -5 18 -10 4 -6 12 -7 18 -3 7 4 21 8 32 8 11
1 19 7 17 14 -1 7 2 10 7 6 6 -3 8 -13 5 -23 -5 -13 -4 -14 4 -3 6 8 16 11 24
8 9 -3 15 1 15 9 0 9 -6 13 -15 9 -13 -5 -13 -3 -1 11 9 11 15 12 17 5 3 -9 7
-9 18 0 11 9 18 8 30 -1 12 -11 15 -11 12 1 -2 10 5 13 27 10 26 -3 27 -1 16
13 -7 9 -18 13 -24 9 -6 -3 -7 -1 -3 6 8 12 30 1 48 -24 5 -6 8 -3 8 7 0 9 -5
18 -12 20 -7 3 -5 7 6 11 9 4 15 3 11 -2 -3 -5 -1 -12 5 -16 5 -3 10 3 10 14
0 12 5 21 11 21 5 0 7 -5 4 -10 -7 -12 31 -8 42 5 5 4 2 5 -6 0 -9 -5 -12 -4
-7 3 10 16 39 15 30 0 -5 -10 -3 -10 7 0 8 7 14 17 14 22 0 6 4 10 8 9 5 0 18
12 29 26 11 14 23 24 26 21 3 -3 11 -1 19 6 11 9 12 7 7 -8 -5 -17 -4 -17 5
-2 7 9 20 15 31 13 12 -2 18 0 15 6 -4 5 -11 7 -16 4 -5 -4 -9 1 -9 10 0 9 5
13 10 10 6 -3 10 -2 10 3 0 5 11 8 24 7 24 -3 28 8 13 32 -6 9 -3 11 7 7 11
-4 14 0 11 15 -2 12 0 19 6 16 5 -4 7 -11 4 -16 -4 -5 1 -9 9 -9 9 0 16 9 16
21 0 13 4 18 13 13 9 -6 9 -4 0 7 -19 19 -16 25 17 39 18 7 30 20 29 29 -3 30
1 34 19 18 16 -15 18 -14 20 26 1 23 3 50 3 59 0 10 4 20 8 22 4 3 7 -11 6
-30 -2 -25 1 -32 9 -24 6 6 12 32 14 58 4 78 8 97 19 97 17 0 28 15 12 16 -8
1 -18 1 -22 0 -5 -1 -6 3 -3 8 3 5 16 7 29 4 22 -5 22 -5 2 10 -18 14 -18 16
-3 22 18 7 15 58 -5 85 -7 8 -1 6 13 -5 l24 -20 -23 39 c-18 31 -19 37 -5 25
16 -12 17 -12 12 2 -4 9 -1 22 5 29 9 10 8 12 -5 7 -15 -5 -16 -2 -8 19 6 14
7 23 2 21 -4 -3 -7 5 -7 18 0 13 4 20 10 17 6 -3 6 0 -1 9 -5 8 -9 24 -8 36 0
12 -3 20 -7 17 -5 -3 -9 1 -9 10 0 8 -4 16 -10 18 -5 2 -10 31 -12 65 -1 38
-7 64 -14 67 -8 3 -11 -3 -8 -20 2 -13 0 -24 -5 -24 -6 0 -8 9 -6 20 2 11 -1
20 -7 20 -7 0 -3 7 8 16 10 8 13 13 7 9 -7 -3 -13 -1 -13 5 0 6 -4 9 -8 6 -5
-3 -9 1 -9 9 0 8 3 12 7 10 4 -2 7 3 7 11 0 8 -6 13 -13 10 -22 -8 -45 33 -33
57 8 14 8 18 0 13 -6 -4 -11 -2 -11 4 0 6 -4 9 -8 6 -4 -2 -14 0 -22 6 -13 8
-13 9 1 5 9 -3 22 -1 30 5 12 8 12 9 -1 5 -25 -7 -60 10 -54 28 3 8 11 12 18
8 6 -4 5 1 -3 11 -14 16 -15 16 -27 -6 -13 -22 -13 -22 -10 9 2 18 -1 33 -6
33 -5 0 -6 5 -3 10 4 7 -5 9 -27 5 -30 -6 -31 -5 -14 8 19 14 19 15 -1 26 -12
6 -29 8 -38 4 -15 -5 -16 -3 -5 17 8 15 8 20 1 16 -7 -5 -11 2 -12 16 l0 23
-9 -22 c-5 -13 -12 -23 -14 -23 -3 0 -2 7 1 17 4 11 3 14 -5 9 -7 -4 -12 -2
-12 6 0 9 -3 9 -10 -2 -8 -12 -10 -10 -8 9 2 14 -3 26 -12 28 -13 4 -13 3 0
-6 8 -6 10 -11 5 -11 -6 0 -16 5 -23 12 -7 7 -12 8 -12 4 0 -5 -7 -3 -15 4
-17 14 -21 35 -5 25 6 -3 7 1 4 9 -5 12 -11 13 -25 5 -14 -7 -19 -6 -19 3 0 9
-3 9 -10 -2 -7 -12 -10 -12 -10 -1 0 7 -6 11 -15 7 -9 -3 -19 3 -26 16 -7 13
-7 18 -1 14 6 -3 13 -3 16 2 3 5 -17 8 -45 8 -47 -1 -62 6 -36 18 8 4 7 5 -3
5 -29 -2 -41 1 -36 9 2 4 -6 8 -20 8 -16 0 -23 -4 -20 -13 3 -7 1 -13 -4 -13
-6 0 -10 7 -10 15 0 10 -10 15 -34 15 -19 0 -36 -3 -39 -7 -2 -5 -2 -3 -1 4 2
8 -8 11 -28 8 -22 -3 -28 -1 -20 7 12 12 5 38 -10 38 -7 0 -7 -5 0 -13 8 -9 6
-16 -7 -24 -14 -9 -18 -8 -18 3 0 7 4 11 9 8 4 -3 8 0 8 5 0 6 -6 11 -12 11
-9 0 -9 3 -3 8 6 4 10 17 9 29 -1 12 4 19 11 17 6 -3 20 5 31 17 10 13 13 19
7 15 -15 -8 -18 10 -3 19 5 3 7 12 3 20 -4 13 6 19 28 17 10 -1 5 73 -6 80 -6
5 -5 8 3 8 7 0 12 8 11 18 -3 31 1 40 19 45 16 4 16 5 0 6 -22 1 -24 21 -3 21
8 0 15 5 15 11 0 5 5 7 12 3 7 -5 8 -3 3 5 -5 9 -10 10 -18 2 -6 -6 -14 -11
-17 -11 -11 0 -8 34 3 48 8 10 7 16 -2 22 -8 4 -9 10 -3 14 11 7 25 -21 17
-34 -3 -5 0 -12 6 -16 8 -4 9 -3 5 4 -4 7 -3 12 2 12 6 0 6 13 -1 35 -9 30
-13 33 -26 23 -12 -9 -11 -7 2 8 9 11 14 24 10 29 -5 4 -2 5 5 1 7 -4 9 -13 6
-19 -5 -8 -3 -8 6 0 12 11 10 16 -8 33 -23 22 -27 35 -13 44 5 3 8 -2 7 -11 0
-9 4 -17 9 -20 7 -2 9 20 5 63 -3 36 -2 68 2 70 5 3 5 11 1 17 -4 7 -8 19 -8
27 0 8 -7 14 -16 12 -11 -1 -16 5 -15 20 1 13 -2 34 -6 47 -7 20 -6 22 9 17
15 -6 16 -5 1 11 -8 10 -13 24 -10 32 3 9 0 11 -9 6 -11 -6 -12 -5 -1 6 16 17
15 26 -2 32 -10 4 -13 1 -9 -9 3 -7 1 -14 -4 -14 -5 0 -10 14 -11 32 -2 17 -8
38 -15 47 -7 8 -7 12 -2 9 6 -4 11 2 11 12 0 10 -4 16 -8 14 -4 -3 -8 0 -8 5
0 6 -5 11 -11 11 -8 0 -8 -5 1 -15 7 -8 9 -15 5 -15 -17 0 -33 35 -23 47 8 10
6 13 -8 14 -11 1 -23 1 -27 0 -5 -1 -6 3 -2 9 3 5 -5 21 -19 35 -14 14 -30 34
-36 46 -6 11 -16 16 -22 13 -7 -5 -8 -2 -4 5 5 7 15 10 23 7 8 -4 11 -1 7 5
-3 6 -15 9 -25 6 -11 -3 -19 -1 -19 5 0 5 -4 7 -8 4 -4 -2 -14 0 -22 6 -12 8
-12 9 2 4 10 -3 20 -1 23 4 4 6 -3 10 -15 10 -12 0 -19 4 -16 9 3 4 -5 7 -18
6 -13 -2 -29 1 -37 6 -12 7 -12 10 0 21 11 11 13 11 6 -1 -6 -10 -4 -12 5 -6
9 6 11 4 5 -5 -5 -9 -4 -11 4 -6 15 9 -4 37 -22 33 -7 -1 -11 4 -9 11 1 8 -2
11 -8 7 -5 -3 -10 -13 -10 -21 0 -8 -4 -14 -9 -14 -5 0 -7 10 -4 23 5 22 5 22
-11 2 -16 -19 -16 -19 -6 8 9 26 8 27 -23 27 -24 0 -28 3 -17 10 20 13 4 13
-20 0 -13 -7 -21 -7 -25 0 -5 8 -12 7 -23 -2 -15 -11 -15 -11 -5 3 7 9 9 20 5
25 -4 4 0 3 10 -4 9 -7 18 -9 21 -5 3 5 -6 13 -19 20 -13 6 -22 7 -18 2 3 -5
0 -9 -5 -9 -6 0 -11 6 -11 13 0 8 -4 7 -10 -3 -9 -13 -10 -13 -11 0 -1 8 0 19
1 25 1 5 -2 6 -7 2 -4 -5 -8 -13 -8 -18 0 -5 -4 -8 -10 -6 -5 1 -9 5 -8 9 2 4
-4 5 -12 2 -8 -4 -15 -1 -15 6 0 6 4 9 8 6 4 -2 14 -1 21 3 9 6 10 11 2 15 -6
4 -11 2 -11 -5 0 -8 -5 -7 -17 2 -11 10 -14 10 -9 2 4 -7 2 -13 -3 -13 -6 0
-11 6 -11 13 0 8 -4 7 -10 -3 -6 -10 -10 -11 -10 -2 0 7 -13 12 -30 12 -32 0
-37 8 -17 29 10 11 9 12 -2 6 -11 -6 -13 -3 -9 13 4 15 2 19 -8 15 -8 -3 -14
0 -14 6 0 6 7 11 16 11 15 0 15 2 0 25 -15 23 -15 25 5 35 16 9 18 14 8 26 -8
10 -8 14 0 14 6 0 11 5 11 11 0 5 -4 8 -9 5 -11 -7 -9 13 2 32 5 7 3 12 -5 12
-10 0 -10 2 0 9 8 4 14 12 14 16 0 4 -6 12 -14 17 -10 8 -10 9 2 5 8 -2 15
-16 16 -31 1 -14 4 -30 8 -34 5 -4 7 0 6 8 -5 32 0 51 12 44 7 -4 8 -3 4 5 -4
6 -12 8 -18 5 -6 -4 -8 2 -3 17 5 19 4 21 -4 9 -8 -11 -11 -11 -11 -2 0 7 10
17 23 22 14 6 17 9 6 9 -12 1 -15 8 -11 26 2 14 9 22 15 18 6 -3 7 -1 3 6 -4
6 -11 9 -16 6 -5 -3 -11 -1 -14 4 -4 5 -1 13 5 17 8 4 9 3 5 -4 -5 -8 -2 -10
8 -6 14 5 14 8 1 21 -16 16 -21 38 -6 29 5 -4 8 1 7 9 -3 18 -21 21 -21 3 0
-6 -7 -13 -15 -15 -9 -3 -11 -1 -5 4 13 11 19 47 7 39 -6 -3 -9 2 -7 11 2 10
4 18 5 18 1 0 3 8 5 18 2 9 -1 15 -6 11 -5 -3 -6 -10 -3 -16 4 -7 2 -8 -4 -4
-8 5 -9 13 -3 25 5 9 6 23 1 31 -4 7 -6 22 -4 33 3 16 1 18 -8 9 -23 -23 -34
-13 -30 26 3 28 -1 42 -14 53 -10 8 -15 9 -11 2 4 -6 3 -14 -3 -18 -9 -6 -15
22 -11 54 2 7 -2 10 -8 6 -6 -3 -11 -2 -11 4 0 5 -9 8 -20 6 -11 -2 -18 0 -15
5 4 6 8 19 10 31 4 17 2 19 -10 9 -12 -10 -15 -10 -15 0 0 10 -3 10 -14 1 -11
-10 -14 -9 -12 1 1 7 5 18 9 24 4 7 0 14 -8 18 -8 3 -17 1 -20 -4 -7 -11 -45
10 -45 24 0 4 6 3 14 -3 8 -7 17 -8 20 -3 8 13 -40 33 -60 25 -14 -5 -15 -3
-5 15 7 12 9 23 6 23 -3 1 -8 2 -12 3 -5 1 -14 5 -22 10 -9 6 -12 5 -8 -2 5
-6 0 -8 -13 -5 -11 3 -20 10 -20 17 0 6 -5 4 -11 -4 -9 -12 -10 -11 -6 6 3 14
-3 25 -17 34 -19 12 -20 12 -7 -4 12 -15 12 -16 -5 -10 -10 4 -24 11 -31 16
-7 5 -13 4 -17 -4 -3 -7 -5 -4 -3 7 3 16 -2 21 -19 23 -18 1 -22 -2 -17 -16 3
-9 3 -14 -1 -10 -6 5 -9 14 -15 48 -1 3 -5 -2 -11 -10 -7 -12 -12 -11 -32 5
-12 11 -17 13 -11 5 10 -14 7 -16 -20 -14 -18 1 -33 3 -34 4 -2 1 -6 3 -10 4
-5 1 -14 5 -20 9 -8 5 -13 3 -13 -4 0 -7 -3 -9 -7 -6 -3 4 -13 1 -22 -6 -14
-11 -15 -10 -1 7 14 18 13 18 -8 12 -13 -4 -22 -3 -22 3 0 5 14 8 30 6 23 -3
30 0 29 13 0 10 -3 12 -6 5 -3 -9 -10 -10 -21 -4 -16 9 -58 -10 -47 -20 2 -3
-6 -6 -18 -6 -15 -2 -18 0 -8 6 10 7 8 12 -9 24 -15 11 -18 16 -8 20 10 4 10
6 0 6 -9 1 -10 7 -4 19 10 21 9 62 -2 81 -6 9 -5 12 2 7 6 -3 13 -2 17 4 4 6
9 8 13 6 4 -2 8 7 8 20 1 13 -2 24 -8 24 -5 0 -6 -5 -2 -12 4 -7 3 -8 -4 -4
-8 5 -10 2 -6 -8 3 -9 2 -16 -3 -16 -5 0 -9 11 -9 24 0 14 4 22 8 20 4 -3 8 0
8 6 0 7 6 10 13 7 8 -3 14 1 14 8 0 7 -7 11 -15 8 -12 -5 -12 -2 -3 15 7 12 9
22 5 22 -3 0 0 8 7 18 13 15 12 16 -3 3 -21 -15 -24 -2 -5 18 9 11 9 13 0 7
-16 -9 -17 6 -2 21 8 8 6 13 -9 17 -18 6 -20 15 -19 75 1 38 -1 67 -6 64 -4
-2 -5 9 -2 26 3 17 1 31 -5 31 -5 0 -7 8 -4 18 5 14 4 14 -6 -2 -10 -14 -14
-16 -20 -5 -5 8 -2 18 8 26 14 11 14 13 2 11 -8 -2 -14 3 -12 10 1 6 -3 12 -9
12 -8 0 -8 5 1 15 7 8 8 15 3 15 -5 0 -10 7 -10 15 0 8 5 15 10 15 6 0 8 2 5
5 -3 3 -18 1 -34 -5 -27 -9 -28 -9 -10 5 20 15 20 15 0 15 -16 0 -17 2 -4 10
9 6 10 10 3 10 -7 0 -10 12 -8 31 3 21 0 29 -8 26 -7 -2 -12 -10 -12 -17 0 -7
-5 -15 -11 -17 -7 -2 -11 6 -10 21 0 13 4 22 8 20 4 -3 5 2 2 10 -3 9 -11 13
-18 9 -6 -4 -5 1 3 10 17 21 7 35 -13 18 -18 -15 -29 9 -28 58 0 25 -2 31 -9
20 -8 -12 -13 -6 -11 12 1 4 -8 4 -20 1 -14 -3 -19 -1 -15 6 4 5 1 13 -5 16
-7 4 -3 4 10 2 12 -2 20 0 16 5 -3 5 -12 9 -20 9 -9 0 -13 5 -9 13 4 6 -1 3
-11 -8 -12 -15 -15 -16 -11 -3 3 9 3 19 -1 23 -4 4 -7 12 -7 18 0 5 -7 12 -15
14 -13 4 -13 3 0 -6 12 -8 11 -10 -6 -9 -18 2 -23 10 -26 56 -2 19 -18 14 -18
-5 0 -13 -3 -14 -12 -5 -8 8 -8 15 3 28 9 11 9 15 2 10 -17 -9 -53 11 -53 29
0 8 5 15 12 15 6 0 8 3 5 6 -4 4 -14 1 -22 -6 -13 -11 -16 -11 -13 0 2 7 -3
15 -11 18 -10 3 -11 0 -5 -9 7 -12 5 -12 -9 0 -12 10 -14 18 -7 31 9 16 7 18
-16 14 -21 -4 -25 -2 -20 11 4 11 2 14 -6 9 -8 -5 -9 0 -5 17 l6 24 -20 -25
c-18 -21 -20 -22 -17 -5 2 15 -2 19 -17 18 -11 -1 -14 0 -7 3 20 9 14 27 -9
21 -16 -4 -18 -3 -8 9 9 11 7 14 -10 14 -11 0 -21 5 -21 10 0 6 5 10 10 10 6
0 10 5 10 11 0 8 -4 8 -13 0 -10 -8 -17 -7 -25 1 -16 16 -15 -4 1 -22 10 -12
9 -12 -6 -1 -11 9 -15 21 -12 32 6 19 -10 28 -17 10 -1 -5 -10 -2 -18 7 -13
14 -12 15 2 10 9 -4 18 -1 21 6 4 9 -2 11 -20 8 -20 -4 -24 -2 -18 9 7 12 6
12 -7 1 -14 -11 -18 -10 -28 10 -10 21 -10 21 3 5 13 -15 15 -15 20 -2 4 8 3
14 -1 13 -4 -1 -18 4 -31 11 -14 8 -21 9 -17 2 4 -6 4 -11 1 -11 -12 0 -30 25
-30 40 0 8 -4 15 -10 15 -5 0 -16 4 -22 8 -9 6 -11 3 -7 -10 4 -13 3 -14 -3
-5 -5 7 -20 14 -33 17 -12 2 -25 7 -29 11 -3 4 2 5 11 1 16 -6 35 20 23 31 -3
3 -5 -1 -5 -9 0 -11 -2 -11 -10 1 -7 11 -10 11 -10 2 0 -10 -8 -9 -30 5 -16 9
-30 22 -30 27 0 5 9 1 20 -9 18 -17 20 -17 14 -2 -6 17 -8 18 -46 21 -14 1
-22 7 -20 16 3 11 0 11 -15 0 -10 -8 -15 -11 -11 -6 3 4 -1 16 -10 26 -13 16
-19 17 -31 7 -12 -10 -14 -9 -7 8 5 15 4 17 -5 8 -12 -12 -42 -6 -34 7 3 5 -1
15 -9 23 -8 8 -12 18 -8 22 4 5 2 5 -5 1 -7 -4 -9 -14 -6 -24 6 -15 5 -15 -10
-3 -9 7 -14 17 -11 22 3 5 3 9 1 9 -3 0 -21 7 -42 16 -23 9 -34 11 -30 4 6 -9
2 -9 -14 -1 -12 7 -27 9 -33 5 -6 -4 -9 -3 -7 2 3 5 -8 22 -23 38 -16 16 -26
22 -23 13 7 -16 -18 -18 -32 -2 -5 4 -1 4 7 0 13 -7 7 2 -29 45 -2 3 -2 -2 2
-11 7 -21 -30 -20 -43 1 -9 13 -10 13 -10 0 0 -10 -3 -11 -8 -3 -4 6 -25 13
-47 15 -33 2 -39 6 -37 22 3 18 2 18 -14 5 -15 -12 -16 -12 -9 0 6 11 4 13 -8
8 -9 -3 -18 0 -21 9 -3 8 -11 14 -18 13 -10 0 -10 -2 0 -6 6 -2 12 -9 12 -14
0 -6 -7 -6 -19 0 -10 6 -21 7 -25 4 -3 -3 -6 -1 -6 5 0 7 -3 11 -7 11 -19 -3
-33 2 -33 12 0 6 5 7 13 2 19 -11 47 -14 47 -4 0 5 -8 8 -17 6 -10 -1 -23 2
-30 7 -7 6 -15 3 -22 -9 -6 -10 -11 -13 -11 -7 0 7 -7 14 -14 17 -11 4 -13 1
-9 -11z m346 -117 c-3 -9 -8 -14 -10 -11 -3 3 -2 9 2 15 9 16 15 13 8 -4z
m-346 -17 c-3 -8 -6 -5 -6 6 -1 11 2 17 5 13 3 -3 4 -12 1 -19z m14 -25 c-11
-5 -11 -7 0 -14 8 -5 9 -9 3 -9 -6 0 -16 6 -22 13 -8 10 -6 13 11 14 12 0 16
-1 8 -4z m529 -37 c0 -2 -7 -7 -16 -10 -8 -3 -12 -2 -9 4 6 10 25 14 25 6z
m353 -221 c-3 -9 -8 -14 -10 -11 -3 3 -2 9 2 15 9 16 15 13 8 -4z m-884 -109
c0 -7 -2 -6 -6 2 -2 6 -8 10 -12 8 -4 -3 -8 1 -8 9 0 11 4 12 14 4 7 -6 13
-17 12 -23z m-136 -251 c-3 -9 -8 -14 -10 -11 -3 3 -2 9 2 15 9 16 15 13 8 -4z
m1606 -179 c9 -10 8 -15 -2 -19 -8 -3 -13 3 -13 14 0 23 0 23 15 5z m-1692
-11 c0 -6 -8 -11 -18 -11 -9 0 -15 5 -12 11 2 7 10 12 17 12 7 0 13 -5 13 -12z
m-2 -35 c3 -6 -1 -7 -9 -4 -18 7 -21 14 -7 14 6 0 13 -4 16 -10z m-42 -145 c4
-8 2 -17 -4 -21 -6 -4 -5 -12 3 -22 10 -13 8 -13 -9 1 -17 15 -21 30 -14 55 3
8 20 0 24 -13z m-19 -61 c3 -8 2 -12 -4 -9 -6 3 -10 10 -10 16 0 14 7 11 14
-7z m11 -64 c-3 -5 -1 -10 6 -10 7 0 4 -7 -7 -16 -18 -15 -18 -15 0 -10 16 6
17 4 6 -9 -7 -9 -15 -14 -17 -11 -10 9 -10 42 0 54 11 14 21 16 12 2z m1932
-46 c-3 -3 -12 -4 -19 -1 -8 3 -5 6 6 6 11 1 17 -2 13 -5z m-1891 -139 c1 -8
-2 -15 -8 -15 -6 0 -8 6 -5 14 3 7 1 19 -4 25 -6 8 -5 8 3 1 6 -5 13 -17 14
-25z m1924 -54 c0 -6 -4 -12 -8 -15 -5 -3 -9 1 -9 9 0 8 4 15 9 15 4 0 8 -4 8
-9z m-8 -40 c-10 -6 -10 -10 2 -20 8 -7 12 -19 9 -27 -8 -21 -22 -17 -18 6 2
11 -1 22 -6 25 -12 8 -2 25 14 25 8 0 8 -3 -1 -9z m-2672 -501 c0 -5 -5 -10
-11 -10 -5 0 -7 5 -4 10 3 6 8 10 11 10 2 0 4 -4 4 -10z m3361 -183 c-10 -9
-11 -8 -5 6 3 10 9 15 12 12 3 -3 0 -11 -7 -18z m-3424 -33 c-3 -3 -12 -4 -19
-1 -8 3 -5 6 6 6 11 1 17 -2 13 -5z m3513 -208 c0 -2 -8 -10 -17 -17 -16 -13
-17 -12 -4 4 13 16 21 21 21 13z m-1 -69 c0 -9 -2 -8 -6 1 -2 6 -10 9 -15 6
-7 -4 -8 -2 -4 5 9 13 26 5 25 -12z m271 -481 c0 -2 -7 -7 -16 -10 -8 -3 -12
-2 -9 4 6 10 25 14 25 6z m-4080 -20 c0 -3 -4 -8 -10 -11 -5 -3 -10 -1 -10 4
0 6 5 11 10 11 6 0 10 -2 10 -4z m-40 -32 c0 -8 -19 -13 -24 -6 -3 5 1 9 9 9
8 0 15 -2 15 -3z m-328 -442 c-7 -2 -9 -9 -5 -15 3 -7 2 -8 -2 -4 -16 14 -14
36 3 29 10 -4 12 -7 4 -10z m4855 -76 c-3 -7 -1 -18 4 -23 6 -6 1 -17 -13 -29
-18 -15 -20 -15 -9 -1 11 14 11 17 0 17 -11 0 -11 2 1 10 10 6 11 10 3 10 -7
0 -13 5 -13 11 0 5 5 7 10 4 6 -3 10 -1 10 4 0 6 3 11 6 11 3 0 4 -6 1 -14z
m0 -88 c-3 -8 -6 -5 -6 6 -1 11 2 17 5 13 3 -3 4 -12 1 -19z m-9 -32 c-7 -8
-15 -12 -17 -11 -5 6 10 25 20 25 5 0 4 -6 -3 -14z m-4883 -66 c-11 -5 -15 -9
-9 -9 6 -1 11 -8 11 -17 0 -15 -2 -14 -13 1 -16 21 -10 35 14 34 14 0 13 -2
-3 -9z m5 -100 c0 -5 -4 -10 -10 -10 -5 0 -10 5 -10 10 0 6 5 10 10 10 6 0 10
-4 10 -10z m4846 -217 c-2 -9 -8 -19 -14 -21 -10 -3 -11 11 -3 46 3 12 19 -12
17 -25z m118 -232 c3 -5 -2 -15 -12 -22 -15 -12 -16 -12 -5 2 7 9 10 19 6 22
-3 4 -4 7 0 7 3 0 8 -4 11 -9z m634 -682 c9 -12 9 -16 -1 -16 -7 0 -14 9 -14
20 -1 11 -1 18 0 16 2 -2 8 -11 15 -20z m-6285 -54 c-3 -9 -8 -14 -10 -11 -3
3 -2 9 2 15 9 16 15 13 8 -4z m6287 5 c0 -5 -2 -10 -4 -10 -3 0 -8 5 -11 10
-3 6 -1 10 4 10 6 0 11 -4 11 -10z m-6305 -70 c3 -6 -1 -7 -9 -4 -18 7 -21 14
-7 14 6 0 13 -4 16 -10z m25 -195 c0 -2 -10 -9 -22 -15 -22 -11 -22 -10 -4 4
21 17 26 19 26 11z m137 -392 c0 -7 -4 -13 -8 -13 -4 0 -9 6 -12 13 -3 8 0 14
7 14 7 0 13 -6 13 -14z m5925 -7 c7 4 8 2 4 -5 -9 -13 -26 -5 -25 12 0 9 2 8
6 -1 2 -6 10 -9 15 -6z m-5907 -34 c-3 -3 -11 0 -18 7 -9 10 -8 11 6 5 10 -3
15 -9 12 -12z m5845 -2 c0 -5 -5 -10 -11 -10 -5 0 -7 5 -4 10 3 6 8 10 11 10
2 0 4 -4 4 -10z m-70 -34 c0 -2 -8 -10 -17 -17 -16 -13 -17 -12 -4 4 13 16 21
21 21 13z m-3655 -146 c3 -5 1 -10 -4 -10 -6 0 -11 5 -11 10 0 6 2 10 4 10 3
0 8 -4 11 -10z m60 0 c-3 -5 -12 -10 -18 -10 -7 0 -6 4 3 10 19 12 23 12 15 0z
m-275 -20 c6 -11 8 -20 6 -20 -3 0 -10 9 -16 20 -6 11 -8 20 -6 20 3 0 10 -9
16 -20z m94 2 c3 -5 -1 -9 -9 -9 -8 0 -12 4 -9 9 3 4 7 8 9 8 2 0 6 -4 9 -8z
m84 -17 c-3 -3 -9 2 -12 12 -6 14 -5 15 5 6 7 -7 10 -15 7 -18z m-688 -25 c0
-6 -9 -2 -20 7 -11 10 -20 19 -20 21 0 1 9 -2 20 -8 11 -6 20 -15 20 -20z
m1225 12 c-3 -3 -11 0 -18 7 -9 10 -8 11 6 5 10 -3 15 -9 12 -12z m-2300 -2
c3 -5 1 -10 -4 -10 -6 0 -11 5 -11 10 0 6 2 10 4 10 3 0 8 -4 11 -10z m1007 3
c-6 -2 -10 -9 -7 -14 4 -5 -1 -6 -10 -2 -13 5 -14 7 -3 14 7 5 18 8 23 8 6 0
4 -3 -3 -6z m32 -11 c3 -5 -1 -9 -9 -9 -8 0 -12 4 -9 9 3 4 7 8 9 8 2 0 6 -4
9 -8z m1662 -24 c5 4 1 -3 -9 -15 -12 -13 -27 -20 -40 -17 -23 4 -43 21 -35
29 3 3 13 -1 21 -10 14 -14 16 -13 22 5 5 16 10 18 19 11 7 -6 17 -7 22 -3z
m-2583 -15 c-3 -7 -9 -10 -14 -7 -14 8 -11 21 5 21 8 0 12 -6 9 -14z m88 0
c13 -16 12 -17 -3 -4 -17 13 -22 21 -14 21 2 0 10 -8 17 -17z m459 -4 c0 -5
-4 -9 -10 -9 -5 0 -10 5 -10 11 0 5 -5 7 -12 3 -7 -4 -8 -3 -4 4 7 12 36 5 36
-9z m2095 10 c11 -16 1 -19 -13 -3 -7 8 -8 14 -3 14 5 0 13 -5 16 -11z m-2251
-7 c3 -5 -1 -9 -9 -9 -8 0 -12 4 -9 9 3 4 7 8 9 8 2 0 6 -4 9 -8z m2456 -16
c0 -3 -4 -8 -10 -11 -5 -3 -10 -1 -10 4 0 6 5 11 10 11 6 0 10 -2 10 -4z"/>
<path d="M3033 5765 c0 -8 4 -12 9 -9 5 3 6 10 3 15 -9 13 -12 11 -12 -6z"/>
<path d="M4030 879 c0 -5 5 -7 10 -4 6 3 10 8 10 11 0 2 -4 4 -10 4 -5 0 -10
-5 -10 -11z"/>
<path d="M3505 6870 c-4 -6 6 -10 22 -10 22 0 25 2 13 10 -19 12 -27 12 -35 0z"/>
<path d="M3615 6840 c-3 -5 -1 -10 4 -10 6 0 11 5 11 10 0 6 -2 10 -4 10 -3 0
-8 -4 -11 -10z"/>
<path d="M3725 6800 c-3 -5 9 -16 27 -25 29 -14 30 -14 14 0 -11 8 -24 15 -29
15 -4 0 -5 5 -2 10 3 6 4 10 1 10 -3 0 -7 -4 -11 -10z"/>
<path d="M3937 6703 c-4 -3 -7 -13 -7 -22 1 -13 3 -13 11 2 11 19 8 33 -4 20z"/>
<path d="M3250 6345 c-14 -8 -19 -14 -10 -15 11 0 11 -3 2 -12 -7 -7 -12 -17
-12 -22 0 -6 6 -2 12 9 7 11 11 22 9 23 -1 2 6 10 16 18 23 17 15 17 -17 -1z"/>
<path d="M4604 6179 c-4 -7 -3 -9 4 -5 5 3 13 0 15 -6 4 -9 6 -10 6 -1 1 17
-16 25 -25 12z"/>
<path d="M3095 6060 c4 -6 11 -8 16 -5 14 9 11 15 -7 15 -8 0 -12 -5 -9 -10z"/>
<path d="M4815 5920 c3 -5 8 -10 11 -10 2 0 4 5 4 10 0 6 -5 10 -11 10 -5 0
-7 -4 -4 -10z"/>
<path d="M3013 5831 c0 -11 5 -18 9 -15 4 3 5 11 1 19 -7 21 -12 19 -10 -4z"/>
<path d="M5001 5484 c0 -11 3 -14 6 -6 3 7 2 16 -1 19 -3 4 -6 -2 -5 -13z"/>
<path d="M5010 5451 c0 -6 4 -12 8 -15 5 -3 9 1 9 9 0 8 -4 15 -9 15 -4 0 -8
-4 -8 -9z"/>
<path d="M2616 5287 c3 -10 9 -15 12 -12 3 3 0 11 -7 18 -10 9 -11 8 -5 -6z"/>
<path d="M5014 5201 c4 -5 1 -12 -4 -14 -6 -3 -5 -4 2 -3 15 3 23 26 8 26 -6
0 -9 -4 -6 -9z"/>
<path d="M5010 5159 c0 -5 5 -7 10 -4 6 3 10 8 10 11 0 2 -4 4 -10 4 -5 0 -10
-5 -10 -11z"/>
<path d="M5010 5136 c0 -2 8 -10 18 -17 15 -13 16 -12 3 4 -13 16 -21 21 -21
13z"/>
<path d="M5011 5093 c-1 -17 16 -25 25 -12 4 7 3 9 -4 5 -5 -3 -13 0 -15 6 -4
9 -6 10 -6 1z"/>
<path d="M5139 5063 c23 -17 60 -29 46 -15 -4 4 -10 7 -13 7 -4 1 -18 6 -32
13 l-25 13 24 -18z"/>
<path d="M5335 5020 c3 -5 8 -10 11 -10 2 0 4 5 4 10 0 6 -5 10 -11 10 -5 0
-7 -4 -4 -10z"/>
<path d="M5417 4979 c7 -7 15 -10 18 -7 3 3 -2 9 -12 12 -14 6 -15 5 -6 -5z"/>
<path d="M2295 4900 c-3 -5 -1 -10 4 -10 6 0 11 5 11 10 0 6 -2 10 -4 10 -3 0
-8 -4 -11 -10z"/>
<path d="M2200 4551 c0 -6 4 -13 10 -16 6 -3 7 1 4 9 -7 18 -14 21 -14 7z"/>
<path d="M5776 4518 c3 -5 10 -6 15 -3 13 9 11 12 -6 12 -8 0 -12 -4 -9 -9z"/>
<path d="M2216 4494 c-5 -14 -4 -15 9 -4 17 14 19 20 6 20 -5 0 -12 -7 -15
-16z"/>
<path d="M2210 4041 c0 -6 4 -13 10 -16 6 -3 7 1 4 9 -7 18 -14 21 -14 7z"/>
<path d="M6260 3745 c0 -9 66 -85 74 -85 1 0 3 7 3 15 0 8 -3 12 -7 10 -8 -5
-47 34 -42 41 1 2 -1 4 -4 3 -4 0 -11 5 -15 13 -5 7 -9 9 -9 3z"/>
<path d="M6446 3398 c3 -5 10 -6 15 -3 13 9 11 12 -6 12 -8 0 -12 -4 -9 -9z"/>
<path d="M6450 3369 c0 -5 5 -7 10 -4 6 3 10 8 10 11 0 2 -4 4 -10 4 -5 0 -10
-5 -10 -11z"/>
<path d="M1533 3205 c0 -7 6 -11 14 -8 7 3 13 6 13 8 0 2 -6 5 -13 8 -8 3 -14
-1 -14 -8z"/>
<path d="M1526 3163 c-6 -14 -5 -15 5 -6 7 7 10 15 7 18 -3 3 -9 -2 -12 -12z"/>
<path d="M1530 2999 c0 -5 5 -7 10 -4 6 3 10 8 10 11 0 2 -4 4 -10 4 -5 0 -10
-5 -10 -11z"/>
<path d="M1565 2840 c-3 -5 1 -10 10 -10 9 0 13 5 10 10 -3 6 -8 10 -10 10 -2
0 -7 -4 -10 -10z"/>
<path d="M6355 2680 c3 -5 8 -10 11 -10 2 0 4 5 4 10 0 6 -5 10 -11 10 -5 0
-7 -4 -4 -10z"/>
<path d="M1640 2640 c0 -6 -6 -8 -12 -4 -10 6 -10 4 0 -7 9 -9 15 -10 23 -2 8
8 8 13 0 17 -6 4 -11 2 -11 -4z"/>
<path d="M1504 2600 c2 -16 20 -14 24 2 3 10 2 10 -6 -1 -7 -9 -11 -10 -15 -2
-4 7 -5 8 -3 1z"/>
<path d="M6766 2494 c-5 -14 -4 -15 9 -4 17 14 19 20 6 20 -5 0 -12 -7 -15
-16z"/>
<path d="M7008 2263 c7 -3 16 -2 19 1 4 3 -2 6 -13 5 -11 0 -14 -3 -6 -6z"/>
<path d="M7075 2160 c3 -5 8 -10 11 -10 2 0 4 5 4 10 0 6 -5 10 -11 10 -5 0
-7 -4 -4 -10z"/>
<path d="M7171 1953 c7 -12 15 -20 18 -17 3 2 -3 12 -13 22 -17 16 -18 16 -5
-5z"/>
<path d="M853 1924 c0 -16 13 -19 21 -5 3 5 0 11 -7 14 -8 3 -14 -1 -14 -9z"/>
<path d="M7171 1534 c7 -8 6 -14 -3 -17 -11 -4 -10 -6 0 -6 7 -1 10 -6 6 -13
-5 -7 -3 -8 5 -4 7 5 10 10 7 13 -3 3 -1 13 4 22 6 13 4 17 -10 17 -14 0 -16
-4 -9 -12z"/>
<path d="M870 1529 c0 -5 -4 -8 -8 -5 -4 2 -8 -3 -9 -13 -1 -10 4 -18 10 -18
7 0 13 11 13 24 1 13 0 23 -2 23 -2 0 -4 -5 -4 -11z"/>
<path d="M7026 1281 c-3 -5 1 -11 9 -15 15 -6 29 7 18 18 -9 9 -21 8 -27 -3z"/>
<path d="M6832 1108 c-15 -15 -16 -31 0 -26 6 2 12 12 14 21 3 20 2 21 -14 5z"/>
<path d="M1165 1000 c3 -5 8 -10 11 -10 2 0 4 5 4 10 0 6 -5 10 -11 10 -5 0
-7 -4 -4 -10z"/>
<path d="M1245 969 c-4 -6 -5 -12 -2 -15 2 -3 7 2 10 11 7 17 1 20 -8 4z"/>
<path d="M3320 972 c-23 -8 -8 -20 25 -20 19 0 33 4 30 8 -3 5 1 10 7 13 15 5
-46 4 -62 -1z"/>
<path d="M6557 973 c-10 -10 -8 -23 4 -23 5 0 8 4 5 9 -4 5 0 12 6 14 7 3 8 6
2 6 -6 1 -14 -2 -17 -6z"/>
<path d="M3446 957 c3 -10 9 -15 12 -12 3 3 0 11 -7 18 -10 9 -11 8 -5 -6z"/>
<path d="M2523 933 c-21 -8 -15 -19 11 -19 15 0 22 5 19 13 -5 14 -10 15 -30
6z"/>
<path d="M3545 931 c-3 -5 -2 -12 3 -15 5 -3 9 1 9 9 0 17 -3 19 -12 6z"/>
<path d="M6455 919 c-4 -6 -5 -12 -2 -15 2 -3 7 2 10 11 7 17 1 20 -8 4z"/>
<path d="M2124 886 c-4 -9 -4 -20 0 -23 3 -4 6 2 6 13 1 18 1 18 14 1 9 -12
16 -14 21 -7 3 5 11 7 17 4 7 -4 8 -2 4 5 -4 6 -12 9 -17 5 -5 -3 -16 0 -24 6
-12 10 -16 9 -21 -4z"/>
<path d="M2090 870 c-8 -15 -8 -18 3 -14 8 3 14 11 14 19 0 20 -4 19 -17 -5z"/>
<path d="M3876 879 c2 -4 -2 -10 -8 -12 -8 -4 -9 -6 -2 -6 6 -1 17 5 23 12 8
10 7 14 -4 14 -8 0 -12 -4 -9 -8z"/>
<path d="M6176 874 c-4 -9 -4 -19 -1 -22 3 -3 5 0 5 6 0 6 8 9 18 6 10 -4 13
-2 7 3 -5 4 -13 12 -16 16 -4 4 -9 0 -13 -9z"/>
<path d="M6225 880 c-3 -6 1 -7 9 -4 18 7 21 14 7 14 -6 0 -13 -4 -16 -10z"/>
<path d="M4753 833 c0 -9 4 -10 14 -2 7 6 13 12 13 14 0 1 -6 2 -13 2 -8 0
-14 -6 -14 -14z"/>
<path d="M4829 837 c6 -8 7 -18 3 -22 -4 -5 -1 -5 6 -1 10 6 10 11 1 22 -6 8
-14 14 -16 14 -3 0 0 -6 6 -13z"/>
<path d="M4936 837 c3 -10 9 -15 12 -12 3 3 0 11 -7 18 -10 9 -11 8 -5 -6z"/>
<path d="M4900 826 c0 -2 7 -6 15 -10 8 -3 15 -1 15 4 0 6 -7 10 -15 10 -8 0
-15 -2 -15 -4z"/>
<path d="M5006 822 c-3 -5 1 -9 9 -9 8 0 12 4 9 9 -3 4 -7 8 -9 8 -2 0 -6 -4
-9 -8z"/>
</g>
</svg>
